<?xml version="1.0" encoding="UTF-8" standalone="no"?>
<svg width="187px" height="99px" viewBox="0 0 187 99" version="1.1" xmlns="http://www.w3.org/2000/svg" xmlns:xlink="http://www.w3.org/1999/xlink">
    <!-- Generator: Sketch 3.7.1 (28215) - http://www.bohemiancoding.com/sketch -->
    <title>Group 4</title>
    <desc>Created with Sketch.</desc>
    <defs></defs>
    <g id="Page-1" stroke="none" stroke-width="1" fill="none" fill-rule="evenodd">
        <g id="A4-Copy" transform="translate(-327.000000, -248.000000)">
            <g id="Group-4" transform="translate(327.000000, 247.000000)">
                <g id="Logo" transform="translate(0.500000, 0.000000)">
                    <path d="M32.9681496,88.9150657 C45.1066871,88.9150657 54.946916,79.0748368 54.946916,66.9362992 C54.946916,54.7977617 45.1066871,44.9575328 32.9681496,44.9575328 C20.8296121,44.9575328 10.9893832,54.7977617 10.9893832,66.9362992 C10.9893832,79.0748368 20.8296121,88.9150657 32.9681496,88.9150657 L32.9681496,88.9150657 Z M10.9893832,21.5309579 L10.9893832,36.6660717 L10.9893832,42.3628679 C16.8220697,37.1424722 24.5244083,33.9681496 32.9681496,33.9681496 C51.1759559,33.9681496 65.9362992,48.728493 65.9362992,66.9362992 C65.9362992,85.1441055 51.1759559,99.9044489 32.9681496,99.9044489 C14.7603434,99.9044489 0,85.1441055 0,66.9362992 L0,36.6660717 L0,21.5309579 L0,6.3958441 C0,3.41580169 2.54880714,1 5.4946916,1 C8.52932598,1 10.9893832,3.5042659 10.9893832,6.3958441 L10.9893832,21.5309579 Z" id="Combined-Shape" fill="#FFFFFF"></path>
                    <path d="M109.893832,88.9150657 C122.03237,88.9150657 131.872598,79.0748368 131.872598,66.9362992 C131.872598,54.7977617 122.03237,44.9575328 109.893832,44.9575328 C97.7552946,44.9575328 87.9150657,54.7977617 87.9150657,66.9362992 C87.9150657,79.0748368 97.7552946,88.9150657 109.893832,88.9150657 L109.893832,88.9150657 Z M131.872598,92.98508 L131.872598,91.5097305 C126.039912,96.7301263 118.337573,99.9044489 109.893832,99.9044489 C91.6860258,99.9044489 76.9256824,85.1441055 76.9256824,66.9362992 C76.9256824,48.728493 91.6860258,33.9681496 109.893832,33.9681496 C128.101638,33.9681496 142.861982,48.728493 142.861982,66.9362992 L142.861982,80.6983644 L142.861982,87.5793969 L142.861982,94.4604295 C142.861982,97.4670784 140.313175,99.9044489 137.36729,99.9044489 C134.332656,99.9044489 131.872598,97.5334608 131.872598,94.4604295 C131.872598,91.3171328 134.324073,88.9150657 137.36729,88.9150657 C140.33542,88.9150657 142.861982,91.3972431 142.861982,94.4604295 L142.861982,87.5793969 Z" id="Combined-Shape" fill="#FFFFFF"></path>
                    <g id="dots" transform="translate(152.393248, 0.000000)" fill="#DE14C4">
                        <ellipse id="Oval-5" cx="6.3460565" cy="6.4946916" rx="5.4946916" ry="5.4946916"></ellipse>
                        <path d="M6.3460565,33.9681496 C9.38069088,33.9681496 11.8407481,31.5080924 11.8407481,28.473458 C11.8407481,25.4388236 9.38069088,22.9787664 6.3460565,22.9787664 C3.31142212,22.9787664 0.851364895,25.4388236 0.851364895,28.473458 C0.851364895,31.5080924 3.31142212,33.9681496 6.3460565,33.9681496 Z" id="Oval-5"></path>
                        <ellipse id="Oval-5" cx="28.3248229" cy="6.48407481" rx="5.4946916" ry="5.4946916"></ellipse>
                    </g>
                    <rect id="Rectangle-4" fill="#FFFFFF" x="0" y="6.92018788" width="10.9893832" height="60.0161114"></rect>
                    <rect id="Rectangle-4" fill="#FFFFFF" x="131.872598" y="66.9362992" width="10.9893832" height="27.7424242"></rect>
                </g>
            </g>
        </g>
    </g>
</svg>