<?xml version="1.0" encoding="UTF-8" standalone="no"?>
<svg width="188px" height="100px" viewBox="0 0 188 100" version="1.1" xmlns="http://www.w3.org/2000/svg" xmlns:xlink="http://www.w3.org/1999/xlink">
    <!-- Generator: Sketch 3.8.2 (29753) - http://www.bohemiancoding.com/sketch -->
    <title>Group 6</title>
    <desc>Created with Sketch.</desc>
    <defs></defs>
    <g id="Page-1" stroke="none" stroke-width="1" fill="none" fill-rule="evenodd">
        <g id="A4-Copy-2" transform="translate(-327.000000, -400.000000)">
            <g id="Group-6" transform="translate(327.000000, 399.000000)">
                <path d="M33.4681496,89.8408469 C45.6066871,89.8408469 55.446916,80.000618 55.446916,67.8620805 C55.446916,55.723543 45.6066871,45.8833141 33.4681496,45.8833141 C21.3296121,45.8833141 11.4893832,55.723543 11.4893832,67.8620805 C11.4893832,80.000618 21.3296121,89.8408469 33.4681496,89.8408469 L33.4681496,89.8408469 Z M11.4893832,22.4567391 L11.4893832,37.5918529 L11.4893832,43.2886492 C17.3220697,38.0682534 25.0244083,34.8939309 33.4681496,34.8939309 C51.6759559,34.8939309 66.4362992,49.6542742 66.4362992,67.8620805 C66.4362992,86.0698868 51.6759559,100.83023 33.4681496,100.83023 C15.2603434,100.83023 0.5,86.0698868 0.5,67.8620805 L0.5,37.5918529 L0.5,22.4567391 L0.5,7.32162535 C0.5,4.34158294 3.04880714,1.92578125 5.9946916,1.92578125 C9.02932598,1.92578125 11.4893832,4.43004715 11.4893832,7.32162535 L11.4893832,22.4567391 Z" id="Combined-Shape" fill="#FFFFFF"></path>
                <path d="M110.393832,89.8408469 C122.53237,89.8408469 132.372598,80.000618 132.372598,67.8620805 C132.372598,55.723543 122.53237,45.8833141 110.393832,45.8833141 C98.2552946,45.8833141 88.4150657,55.723543 88.4150657,67.8620805 C88.4150657,80.000618 98.2552946,89.8408469 110.393832,89.8408469 L110.393832,89.8408469 Z M132.372598,93.9108613 L132.372598,92.4355118 C126.539912,97.6559076 118.837573,100.83023 110.393832,100.83023 C92.1860258,100.83023 77.4256824,86.0698868 77.4256824,67.8620805 C77.4256824,49.6542742 92.1860258,34.8939309 110.393832,34.8939309 C128.601638,34.8939309 143.361982,49.6542742 143.361982,67.8620805 L143.361982,81.6241456 L143.361982,88.5051782 L143.361982,95.3862107 C143.361982,98.3928596 140.813175,100.83023 137.86729,100.83023 C134.832656,100.83023 132.372598,98.4592421 132.372598,95.3862107 C132.372598,92.2429141 134.824073,89.8408469 137.86729,89.8408469 C140.83542,89.8408469 143.361982,92.3230244 143.361982,95.3862107 L143.361982,88.5051782 Z" id="Combined-Shape" fill="#FFFFFF"></path>
                <g id="Group-4" transform="translate(153.500000, 0.925781)" fill="#FFFFFF">
                    <ellipse id="Oval-5" cx="6.3460565" cy="6.4946916" rx="5.4946916" ry="5.4946916"></ellipse>
                    <path d="M6.3460565,33.9681496 C9.38069088,33.9681496 11.8407481,31.5080924 11.8407481,28.473458 C11.8407481,25.4388236 9.38069088,22.9787664 6.3460565,22.9787664 C3.31142212,22.9787664 0.851364895,25.4388236 0.851364895,28.473458 C0.851364895,31.5080924 3.31142212,33.9681496 6.3460565,33.9681496 Z" id="Oval-5"></path>
                    <ellipse id="Oval-5" cx="28.3248229" cy="6.48407481" rx="5.4946916" ry="5.4946916"></ellipse>
                </g>
                <rect id="Rectangle-4" x="0.5" y="7.84596913" width="10.9893832" height="60.0161114"></rect>
                <rect id="Rectangle-4" fill="#FFFFFF" x="132.372598" y="67.8620805" width="10.9893832" height="27.7424242"></rect>
            </g>
        </g>
    </g>
</svg>